<?xml version="1.0" encoding="UTF-8" standalone="no" ?>
<!DOCTYPE svg PUBLIC "-//W3C//DTD SVG 1.1//EN" "http://www.w3.org/Graphics/SVG/1.1/DTD/svg11.dtd">
<svg xmlns="http://www.w3.org/2000/svg" xmlns:xlink="http://www.w3.org/1999/xlink" version="1.1" width="500" height="500" viewBox="0 0 500 500" xml:space="preserve">
<!-- Created with SVG Stack Editor - https://svgstack.com -->
<defs>
</defs>
<rect x="0" y="0" width="100%" height="100%" fill="transparent"></rect>
<g transform="matrix(0.71 0 0 0.71 250 250)"  >
<g style=""   >
		<g transform="matrix(2 0 0 2 0 -47.47)" id="path_0"  >
<path style="stroke: none; stroke-width: 1; stroke-dasharray: none; stroke-linecap: butt; stroke-dashoffset: 0; stroke-linejoin: miter; stroke-miterlimit: 4; fill: rgb(255,255,255); fill-rule: nonzero; opacity: 1;"  transform=" translate(-255.39, -231.69)" d="M 133.926 115.077 L 102.544 115.09 C 96.859 115.103 90.9242 115.456 85.2663 115.014 C 77.5499 114.412 76.7818 105.068 84.8903 104.02 C 100.645 103.81 122.055 102.909 137.535 104.139 C 145.166 104.745 144.969 114.167 146.355 120.022 L 152.997 148.923 L 402.813 148.916 C 415.99 148.896 431.421 150.513 431.649 168.318 C 431.739 175.359 428.343 183.661 426.497 190.5 L 419.62 216.511 C 413.947 238.162 408.313 265.817 400.884 286.608 C 395.657 301.24 378.224 298.02 366.111 298.005 L 187.407 298.008 C 189.884 308.301 191.476 317.757 201.512 323.678 C 209.429 327.943 219.277 326.74 227.931 326.738 L 364.664 326.715 C 368.75 326.685 373.006 326.397 377.055 326.976 C 398.534 330.047 411.638 357.694 399.747 359.774 C 393.299 360.901 393.421 352.339 391.026 348.119 C 383.588 335.008 369.162 337.658 356.433 337.668 L 223.716 337.687 C 218.819 337.692 213.789 337.945 208.925 337.308 C 188.227 334.597 181.406 320.687 177.41 302.986 L 139.031 137.563 C 137.293 130.096 135.284 122.622 133.926 115.077 Z M 156.186 159.727 C 156.522 164.403 157.842 169.091 158.888 173.649 L 182.796 277.615 C 183.5 280.726 184.377 283.895 184.886 287.04 L 227.407 287.04 L 202.986 176.643 C 201.733 171.048 200.258 165.394 199.379 159.727 L 156.186 159.727 Z M 206.844 159.727 L 226.501 248.931 C 229.279 261.65 232.436 274.294 235.078 287.04 L 367.707 287.046 C 394.667 287.047 389.126 289.12 396.373 262.635 C 403.221 234.655 410.801 206.776 418.455 179.001 C 420.344 172.148 424.05 162.687 413.984 160.332 C 408.946 159.153 398.811 159.723 393.253 159.722 L 206.844 159.727 Z" stroke-linecap="round" />
</g>
		<g transform="matrix(2 0 0 2 115.86 -111.38)" id="path_1"  >
<path style="stroke: none; stroke-width: 1; stroke-dasharray: none; stroke-linecap: butt; stroke-dashoffset: 0; stroke-linejoin: miter; stroke-miterlimit: 4; fill: rgb(255,255,255); fill-rule: nonzero; opacity: 1;"  transform=" translate(-313.32, -199.74)" d="M 374.254 203.323 L 265.026 203.302 C 261.839 203.295 249.504 205.02 248.733 200.422 C 248.238 197.471 249.941 196.358 252.483 196.078 L 363.124 196.076 C 366.597 196.074 370.384 195.695 373.815 195.95 C 378.984 196.335 379.629 203.071 374.254 203.323 Z" stroke-linecap="round" />
</g>
		<g transform="matrix(2 0 0 2 116.36 -15.27)" id="path_2"  >
<path style="stroke: none; stroke-width: 1; stroke-dasharray: none; stroke-linecap: butt; stroke-dashoffset: 0; stroke-linejoin: miter; stroke-miterlimit: 4; fill: rgb(255,255,255); fill-rule: nonzero; opacity: 1;"  transform=" translate(-313.57, -247.79)" d="M 366.568 251.291 L 271.175 251.291 C 267.583 251.293 261.151 252.677 258.725 249.123 C 257.35 247.109 259.164 245.085 260.98 244.192 C 268.443 243.973 275.969 244.184 283.44 244.185 L 351.804 244.205 C 356.03 244.184 360.627 243.784 364.817 244.237 C 369.611 244.754 370.186 248.788 366.568 251.291 Z" stroke-linecap="round" />
</g>
		<g transform="matrix(2 0 0 2 195.04 242.27)" id="path_3"  >
<path style="stroke: none; stroke-width: 1; stroke-dasharray: none; stroke-linecap: butt; stroke-dashoffset: 0; stroke-linejoin: miter; stroke-miterlimit: 4; fill: rgb(255,255,255); fill-rule: nonzero; opacity: 1;"  transform=" translate(-352.92, -376.56)" d="M 355.906 407.246 C 337.797 408.664 322.308 395.225 322.202 376.879 C 322.111 361.187 334.58 346.383 350.812 346.343 C 351.752 345.967 353.12 345.829 354.135 345.794 C 391.496 344.489 394.753 405.681 355.906 407.246 Z M 350.812 357.318 C 325.773 358.84 328.388 398.717 355.586 396.509 L 355.906 396.481 C 374.087 393.171 379.83 370.002 364.463 359.912 C 360.809 357.512 355.123 355.669 350.812 357.318 Z" stroke-linecap="round" />
</g>
		<g transform="matrix(2 0 0 2 -70.29 242.41)" id="path_4"  >
<path style="stroke: none; stroke-width: 1; stroke-dasharray: none; stroke-linecap: butt; stroke-dashoffset: 0; stroke-linejoin: miter; stroke-miterlimit: 4; fill: rgb(255,255,255); fill-rule: nonzero; opacity: 1;"  transform=" translate(-220.25, -376.63)" d="M 223.988 407.246 C 180.469 409.749 178.038 350.413 217.334 346.343 C 223.507 344.771 232.443 348.034 237.493 351.505 C 260.731 367.48 252.466 402.413 223.988 407.246 Z M 217.334 357.318 C 191.63 361.738 196.222 399.489 223.988 396.481 C 252.47 385.319 238.893 354.54 217.334 357.318 Z" stroke-linecap="round" />
</g>
</g>
</g>
<g transform="matrix(0.71 0 0 0.71 250 250)"  >
<g style=""   >
		<g transform="matrix(2 0 0 2 0 -47.47)" id="path_0"  >
<path style="stroke: none; stroke-width: 1; stroke-dasharray: none; stroke-linecap: butt; stroke-dashoffset: 0; stroke-linejoin: miter; stroke-miterlimit: 4; fill: rgb(255,255,255); fill-rule: nonzero; opacity: 1;"  transform=" translate(-255.39, -231.69)" d="M 133.926 115.077 L 102.544 115.09 C 96.859 115.103 90.9242 115.456 85.2663 115.014 C 77.5499 114.412 76.7818 105.068 84.8903 104.02 C 100.645 103.81 122.055 102.909 137.535 104.139 C 145.166 104.745 144.969 114.167 146.355 120.022 L 152.997 148.923 L 402.813 148.916 C 415.99 148.896 431.421 150.513 431.649 168.318 C 431.739 175.359 428.343 183.661 426.497 190.5 L 419.62 216.511 C 413.947 238.162 408.313 265.817 400.884 286.608 C 395.657 301.24 378.224 298.02 366.111 298.005 L 187.407 298.008 C 189.884 308.301 191.476 317.757 201.512 323.678 C 209.429 327.943 219.277 326.74 227.931 326.738 L 364.664 326.715 C 368.75 326.685 373.006 326.397 377.055 326.976 C 398.534 330.047 411.638 357.694 399.747 359.774 C 393.299 360.901 393.421 352.339 391.026 348.119 C 383.588 335.008 369.162 337.658 356.433 337.668 L 223.716 337.687 C 218.819 337.692 213.789 337.945 208.925 337.308 C 188.227 334.597 181.406 320.687 177.41 302.986 L 139.031 137.563 C 137.293 130.096 135.284 122.622 133.926 115.077 Z M 156.186 159.727 C 156.522 164.403 157.842 169.091 158.888 173.649 L 182.796 277.615 C 183.5 280.726 184.377 283.895 184.886 287.04 L 227.407 287.04 L 202.986 176.643 C 201.733 171.048 200.258 165.394 199.379 159.727 L 156.186 159.727 Z M 206.844 159.727 L 226.501 248.931 C 229.279 261.65 232.436 274.294 235.078 287.04 L 367.707 287.046 C 394.667 287.047 389.126 289.12 396.373 262.635 C 403.221 234.655 410.801 206.776 418.455 179.001 C 420.344 172.148 424.05 162.687 413.984 160.332 C 408.946 159.153 398.811 159.723 393.253 159.722 L 206.844 159.727 Z" stroke-linecap="round" />
</g>
		<g transform="matrix(2 0 0 2 115.86 -111.38)" id="path_1"  >
<path style="stroke: none; stroke-width: 1; stroke-dasharray: none; stroke-linecap: butt; stroke-dashoffset: 0; stroke-linejoin: miter; stroke-miterlimit: 4; fill: rgb(255,255,255); fill-rule: nonzero; opacity: 1;"  transform=" translate(-313.32, -199.74)" d="M 374.254 203.323 L 265.026 203.302 C 261.839 203.295 249.504 205.02 248.733 200.422 C 248.238 197.471 249.941 196.358 252.483 196.078 L 363.124 196.076 C 366.597 196.074 370.384 195.695 373.815 195.95 C 378.984 196.335 379.629 203.071 374.254 203.323 Z" stroke-linecap="round" />
</g>
		<g transform="matrix(2 0 0 2 116.36 -15.27)" id="path_2"  >
<path style="stroke: none; stroke-width: 1; stroke-dasharray: none; stroke-linecap: butt; stroke-dashoffset: 0; stroke-linejoin: miter; stroke-miterlimit: 4; fill: rgb(255,255,255); fill-rule: nonzero; opacity: 1;"  transform=" translate(-313.57, -247.79)" d="M 366.568 251.291 L 271.175 251.291 C 267.583 251.293 261.151 252.677 258.725 249.123 C 257.35 247.109 259.164 245.085 260.98 244.192 C 268.443 243.973 275.969 244.184 283.44 244.185 L 351.804 244.205 C 356.03 244.184 360.627 243.784 364.817 244.237 C 369.611 244.754 370.186 248.788 366.568 251.291 Z" stroke-linecap="round" />
</g>
		<g transform="matrix(2 0 0 2 195.04 242.27)" id="path_3"  >
<path style="stroke: none; stroke-width: 1; stroke-dasharray: none; stroke-linecap: butt; stroke-dashoffset: 0; stroke-linejoin: miter; stroke-miterlimit: 4; fill: rgb(255,255,255); fill-rule: nonzero; opacity: 1;"  transform=" translate(-352.92, -376.56)" d="M 355.906 407.246 C 337.797 408.664 322.308 395.225 322.202 376.879 C 322.111 361.187 334.58 346.383 350.812 346.343 C 351.752 345.967 353.12 345.829 354.135 345.794 C 391.496 344.489 394.753 405.681 355.906 407.246 Z M 350.812 357.318 C 325.773 358.84 328.388 398.717 355.586 396.509 L 355.906 396.481 C 374.087 393.171 379.83 370.002 364.463 359.912 C 360.809 357.512 355.123 355.669 350.812 357.318 Z" stroke-linecap="round" />
</g>
		<g transform="matrix(2 0 0 2 -70.29 242.41)" id="path_4"  >
<path style="stroke: none; stroke-width: 1; stroke-dasharray: none; stroke-linecap: butt; stroke-dashoffset: 0; stroke-linejoin: miter; stroke-miterlimit: 4; fill: rgb(255,255,255); fill-rule: nonzero; opacity: 1;"  transform=" translate(-220.25, -376.63)" d="M 223.988 407.246 C 180.469 409.749 178.038 350.413 217.334 346.343 C 223.507 344.771 232.443 348.034 237.493 351.505 C 260.731 367.48 252.466 402.413 223.988 407.246 Z M 217.334 357.318 C 191.63 361.738 196.222 399.489 223.988 396.481 C 252.47 385.319 238.893 354.54 217.334 357.318 Z" stroke-linecap="round" />
</g>
</g>
</g>
</svg>