<?xml version="1.0" encoding="utf-8" ?><!-- created by svgstack.com | Attribution is required. --><svg xmlns="http://www.w3.org/2000/svg" xmlns:xlink="http://www.w3.org/1999/xlink" width="1024" height="1024"><path transform="scale(2 2)" d="M133.926 115.077L102.544 115.09C96.859 115.103 90.9242 115.456 85.2663 115.014C77.5499 114.412 76.7818 105.068 84.8903 104.02C100.645 103.81 122.055 102.909 137.535 104.139C145.166 104.745 144.969 114.167 146.355 120.022L152.997 148.923L402.813 148.916C415.99 148.896 431.421 150.513 431.649 168.318C431.739 175.359 428.343 183.661 426.497 190.5L419.62 216.511C413.947 238.162 408.313 265.817 400.884 286.608C395.657 301.24 378.224 298.02 366.111 298.005L187.407 298.008C189.884 308.301 191.476 317.757 201.512 323.678C209.429 327.943 219.277 326.74 227.931 326.738L364.664 326.715C368.75 326.685 373.006 326.397 377.055 326.976C398.534 330.047 411.638 357.694 399.747 359.774C393.299 360.901 393.421 352.339 391.026 348.119C383.588 335.008 369.162 337.658 356.433 337.668L223.716 337.687C218.819 337.692 213.789 337.945 208.925 337.308C188.227 334.597 181.406 320.687 177.41 302.986L139.031 137.563C137.293 130.096 135.284 122.622 133.926 115.077ZM156.186 159.727C156.522 164.403 157.842 169.091 158.888 173.649L182.796 277.615C183.5 280.726 184.377 283.895 184.886 287.04L227.407 287.04L202.986 176.643C201.733 171.048 200.258 165.394 199.379 159.727L156.186 159.727ZM206.844 159.727L226.501 248.931C229.279 261.65 232.436 274.294 235.078 287.04L367.707 287.046C394.667 287.047 389.126 289.12 396.373 262.635C403.221 234.655 410.801 206.776 418.455 179.001C420.344 172.148 424.05 162.687 413.984 160.332C408.946 159.153 398.811 159.723 393.253 159.722L206.844 159.727Z"/><path transform="scale(2 2)" d="M374.254 203.323L265.026 203.302C261.839 203.295 249.504 205.02 248.733 200.422C248.238 197.471 249.941 196.358 252.483 196.078L363.124 196.076C366.597 196.074 370.384 195.695 373.815 195.95C378.984 196.335 379.629 203.071 374.254 203.323Z"/><path transform="scale(2 2)" d="M366.568 251.291L271.175 251.291C267.583 251.293 261.151 252.677 258.725 249.123C257.35 247.109 259.164 245.085 260.98 244.192C268.443 243.973 275.969 244.184 283.44 244.185L351.804 244.205C356.03 244.184 360.627 243.784 364.817 244.237C369.611 244.754 370.186 248.788 366.568 251.291Z"/><path transform="scale(2 2)" d="M355.906 407.246C337.797 408.664 322.308 395.225 322.202 376.879C322.111 361.187 334.58 346.383 350.812 346.343C351.752 345.967 353.12 345.829 354.135 345.794C391.496 344.489 394.753 405.681 355.906 407.246ZM350.812 357.318C325.773 358.84 328.388 398.717 355.586 396.509L355.906 396.481C374.087 393.171 379.83 370.002 364.463 359.912C360.809 357.512 355.123 355.669 350.812 357.318Z"/><path transform="scale(2 2)" d="M223.988 407.246C180.469 409.749 178.038 350.413 217.334 346.343C223.507 344.771 232.443 348.034 237.493 351.505C260.731 367.48 252.466 402.413 223.988 407.246ZM217.334 357.318C191.63 361.738 196.222 399.489 223.988 396.481C252.47 385.319 238.893 354.54 217.334 357.318Z"/></svg> 